<svg width="150" height="38" viewBox="0 0 150 38" fill="none" xmlns="http://www.w3.org/2000/svg">
<path d="M5.71772 13.6797V23.3668C5.71772 24.0237 5.87101 24.4949 6.17759 24.7803C6.48418 25.0657 7.00833 25.207 7.75007 25.2042H9.97316V28.2198H7.1143C5.48531 28.2198 4.23637 27.8391 3.36748 27.0776C2.49859 26.316 2.06414 25.077 2.06414 23.3604V13.6797H0V10.7255H2.06414V6.37256H5.71772V10.7255H9.97316V13.6797H5.71772Z" fill="white"/>
<path d="M29.2222 20.8258H15.8498C15.9558 22.2231 16.4736 23.3456 17.4032 24.1933C18.3395 25.0434 19.568 25.499 20.8322 25.4648C22.7804 25.4648 24.1573 24.6496 24.9626 23.0192H28.8683C28.3547 24.6091 27.3482 25.9942 25.9946 26.9737C24.6072 28.0009 22.8864 28.5144 20.8322 28.5144C19.2627 28.5385 17.7147 28.1489 16.3436 27.3849C15.0268 26.6401 13.9475 25.5381 13.2304 24.206C12.4571 22.7453 12.0697 21.1113 12.1051 19.4589C12.0693 17.81 12.4459 16.1782 13.2008 14.7118C13.8966 13.3799 14.967 12.2808 16.28 11.5499C17.6779 10.7916 19.2485 10.409 20.8385 10.4394C22.3755 10.414 23.893 10.7855 25.2444 11.5181C26.5189 12.2216 27.5659 13.2745 28.2622 14.5528C29.0007 15.9341 29.3721 17.4818 29.3409 19.0478C29.3453 19.6429 29.3028 20.2374 29.2138 20.8258M25.5623 17.9034C25.5411 16.5682 25.0643 15.4987 24.1318 14.6948C23.1994 13.8909 22.0451 13.489 20.669 13.489C19.4872 13.4649 18.3403 13.8906 17.4604 14.68C16.5718 15.4726 16.0427 16.5471 15.8731 17.9034H25.5623Z" fill="white"/>
<path d="M73.0842 11.2956C74.1734 11.8664 75.0649 12.7528 75.6421 13.8387C76.2553 14.9619 76.5619 16.3175 76.5619 17.9055V28.2198H72.974V18.4438C72.974 16.8755 72.5819 15.6746 71.7978 14.8411C71.0137 14.0075 69.9442 13.5893 68.5893 13.5865C67.2358 13.5865 66.1613 14.0047 65.3659 14.8411C64.5705 15.6775 64.1735 16.8784 64.1749 18.4438V28.2198H60.5531V10.7255H64.1749V12.7261C64.7861 11.9913 65.5644 11.4136 66.4446 11.0413C67.3721 10.6391 68.3731 10.4342 69.384 10.4394C70.6681 10.4159 71.9384 10.707 73.0842 11.2871" fill="white"/>
<path d="M84.2801 27.3848C82.9542 26.6415 81.8643 25.5398 81.1352 24.206C80.351 22.748 79.9575 21.1119 79.9929 19.4568C79.9616 17.8033 80.3674 16.1709 81.1691 14.7245C81.916 13.3831 83.0278 12.2809 84.3755 11.5456C85.7786 10.816 87.3367 10.4351 88.9181 10.4351C90.4995 10.4351 92.0577 10.816 93.4607 11.5456C94.8087 12.2814 95.921 13.3834 96.6692 14.7245C97.4693 16.1715 97.8742 17.8036 97.8433 19.4568C97.8757 21.1154 97.459 22.752 96.6375 24.1933C95.8603 25.5424 94.7219 26.6477 93.3505 27.3848C91.9402 28.1424 90.361 28.5303 88.7602 28.5123C87.194 28.5344 85.6493 28.1457 84.2801 27.3848ZM91.3796 24.7019C92.2171 24.2348 92.9054 23.5406 93.3653 22.6992C93.874 21.8105 94.1283 20.7304 94.1283 19.4589C94.1283 18.1873 93.8846 17.1129 93.3971 16.2355C92.9537 15.4027 92.2817 14.7138 91.4601 14.2498C90.6636 13.8077 89.7665 13.5785 88.8556 13.5843C87.9492 13.577 87.0565 13.8064 86.2659 14.2498C85.4551 14.7125 84.7979 15.403 84.3755 16.2355C83.9093 17.1143 83.6769 18.1887 83.6783 19.4589C83.6783 21.345 84.1601 22.8009 85.1236 23.8266C85.5845 24.3283 86.1476 24.7254 86.7749 24.9912C87.4022 25.257 88.0792 25.3852 88.7602 25.3673C89.6756 25.371 90.577 25.142 91.3796 24.7019Z" fill="white"/>
<path d="M117.347 20.8258H103.974C104.08 22.2231 104.599 23.3456 105.53 24.1933C106.466 25.0414 107.692 25.4968 108.955 25.4648C110.904 25.4648 112.281 24.6496 113.085 23.0192H117.008C116.494 24.6091 115.487 25.9942 114.134 26.9737C112.747 28.0008 111.026 28.5144 108.971 28.5144C107.4 28.5403 105.85 28.1514 104.477 27.387C103.16 26.6427 102.081 25.5405 101.366 24.2081C100.589 22.7476 100.2 21.1125 100.236 19.4589C100.201 17.8098 100.578 16.178 101.334 14.7118C102.03 13.3799 103.1 12.2808 104.413 11.5499C105.806 10.7944 107.37 10.4119 108.955 10.4394C110.495 10.4121 112.016 10.7837 113.371 11.5181C114.645 12.2216 115.692 13.2745 116.389 14.5528C117.127 15.9341 117.499 17.4818 117.468 19.0477C117.472 19.6428 117.429 20.2374 117.34 20.8258M113.689 17.9034C113.668 16.5682 113.191 15.4987 112.258 14.6948C111.326 13.8909 110.172 13.489 108.796 13.489C107.614 13.4635 106.467 13.8894 105.589 14.68C104.699 15.4726 104.169 16.547 104 17.9034H113.689Z" fill="white"/>
<path d="M126.756 11.1854C127.716 10.6677 128.796 10.4105 129.886 10.4394V14.1862H128.964C127.544 14.1862 126.47 14.5465 125.741 15.267C125.012 15.9876 124.646 17.2372 124.643 19.016V28.2198H121.034V10.7255H124.654V13.2686C125.163 12.3994 125.895 11.6812 126.773 11.1875" fill="white"/>
<path d="M133.114 14.7266C133.796 13.4207 134.826 12.3291 136.091 11.5724C137.355 10.8158 138.804 10.4236 140.277 10.4394C141.526 10.4102 142.763 10.6881 143.88 11.2489C144.839 11.7325 145.679 12.4213 146.342 13.2664V10.7234H149.994V28.2198H146.349V25.6216C145.68 26.4925 144.822 27.1992 143.839 27.6879C142.621 28.2836 141.273 28.565 139.918 28.5065C138.562 28.448 137.244 28.0515 136.081 27.353C134.816 26.5623 133.79 25.4421 133.114 24.1127C132.366 22.6543 131.99 21.034 132.018 19.3953C131.987 17.7739 132.364 16.1708 133.114 14.733M145.596 16.3224C145.143 15.479 144.468 14.7755 143.644 14.2879C142.854 13.8275 141.955 13.5867 141.04 13.5907C140.126 13.5854 139.227 13.8208 138.433 14.2731C137.61 14.7469 136.935 15.4393 136.481 16.2736C135.963 17.2331 135.705 18.3116 135.733 19.4017C135.709 20.5076 135.966 21.6017 136.481 22.5805C136.932 23.4434 137.614 24.164 138.45 24.6616C139.233 25.1294 140.128 25.3762 141.04 25.3758C141.955 25.3797 142.854 25.139 143.644 24.6786C144.471 24.1881 145.147 23.479 145.596 22.6293C146.112 21.6567 146.37 20.568 146.344 19.4673C146.371 18.3726 146.113 17.2897 145.596 16.3245" fill="white"/>
<path d="M32.8249 23.8902C32.4909 23.8905 32.1648 23.7886 31.8903 23.5983C31.6158 23.408 31.4061 23.1383 31.2892 22.8254C31.1723 22.5125 31.1538 22.1714 31.2362 21.8477C31.3187 21.524 31.4981 21.2332 31.7505 21.0144C32.4286 20.4274 48.4353 6.58872 56.9144 4.34232C57.3342 4.22991 57.7815 4.28889 58.1579 4.50629C58.5343 4.72369 58.8089 5.08169 58.9213 5.50155C59.0337 5.92141 58.9747 6.36872 58.7573 6.7451C58.5399 7.12147 58.1819 7.39606 57.7621 7.50847C54.6086 8.34345 49.497 11.3507 43.0058 16.1974C38.0086 19.9272 33.946 23.4473 33.9057 23.4812C33.6087 23.7403 33.2276 23.8827 32.8334 23.8817" fill="#4AD69C"/>
<path d="M41.9186 37.7903C41.5349 37.7895 41.1636 37.6542 40.8693 37.408C40.575 37.1617 40.3764 36.8201 40.308 36.4425C40.1491 35.5588 36.451 14.7245 38.8606 6.28991C38.9878 5.88138 39.2697 5.53884 39.6462 5.33552C40.0227 5.13219 40.4638 5.08423 40.8751 5.20189C41.2865 5.31954 41.6355 5.59347 41.8476 5.96511C42.0596 6.33674 42.1178 6.77658 42.0098 7.19058C41.1133 10.3271 41.0858 16.2504 41.9292 24.3162C42.5777 30.5192 43.5229 35.8088 43.5314 35.8618C43.5702 36.0739 43.5667 36.2916 43.5212 36.5024C43.4757 36.7132 43.3891 36.9129 43.2662 37.0901C43.1433 37.2673 42.9867 37.4185 42.8053 37.535C42.6239 37.6515 42.4212 37.7311 42.209 37.7691C42.1133 37.7877 42.0161 37.7969 41.9186 37.7967" fill="#0DC6FF"/>
<path d="M32.0387 35.5333C31.7077 35.5302 31.3855 35.427 31.1144 35.2371C30.8432 35.0473 30.636 34.7797 30.5199 34.4698C30.4038 34.1599 30.3843 33.822 30.464 33.5008C30.5437 33.1795 30.7189 32.89 30.9663 32.6702C31.6424 32.0832 47.649 18.2445 56.1302 15.9982C56.5452 15.9014 56.9817 15.9701 57.3468 16.1898C57.712 16.4094 57.9772 16.7628 58.0861 17.1748C58.195 17.5868 58.1391 18.025 57.9302 18.3964C57.7214 18.7679 57.376 19.0433 56.9673 19.1643C53.8139 19.9993 48.7129 23.0065 42.2111 27.8532C37.2139 31.5831 33.1534 35.1031 33.1131 35.137C32.8159 35.3958 32.4349 35.5381 32.0408 35.5376" fill="white"/>
<path d="M50.3066 32.6893C49.9225 32.6884 49.551 32.5528 49.2567 32.3061C48.9624 32.0595 48.7639 31.7173 48.6959 31.3393C48.537 30.4577 44.8389 9.62347 47.2485 1.18889C47.3036 0.977626 47.4004 0.779516 47.5332 0.606206C47.666 0.432895 47.8321 0.287877 48.0218 0.17968C48.2114 0.0714819 48.4208 0.00228387 48.6376 -0.0238435C48.8543 -0.0499709 49.0741 -0.0324977 49.284 0.0275401C49.494 0.087578 49.6898 0.188972 49.8599 0.325766C50.0301 0.462559 50.1712 0.631989 50.275 0.824099C50.3787 1.01621 50.443 1.22712 50.4641 1.44444C50.4852 1.66176 50.4626 1.8811 50.3977 2.08957C49.5013 5.22604 49.4737 11.1472 50.3172 19.2152C50.9657 25.4182 51.9108 30.7078 51.9193 30.7608C51.9581 30.9729 51.9547 31.1906 51.9092 31.4014C51.8637 31.6121 51.777 31.8118 51.6541 31.989C51.5313 32.1662 51.3746 32.3174 51.1932 32.434C51.0118 32.5505 50.8092 32.6301 50.5969 32.6681C50.5011 32.6856 50.404 32.6948 50.3066 32.6957" fill="#F46A0C"/>
</svg>
